<svg viewBox="0 0 636 652" version="1.1" xmlns="http://www.w3.org/2000/svg" xmlns:xlink="http://www.w3.org/1999/xlink" xml:space="preserve" xmlns:serif="http://www.serif.com/" style="fill-rule:evenodd;clip-rule:evenodd;stroke-linecap:round;stroke-linejoin:round;stroke-miterlimit:2;">
    <g transform="matrix(1.33333,0,0,1.33333,-7604,-5805.33)">
        <g transform="matrix(2.6436,0,0,3.65236,-5543.62,295.649)">
            <g transform="matrix(2.31625e-17,0.273795,-0.378272,1.67651e-17,4441.34,1102.64)">
                <path d="M473,39.05C466.329,32.38 456.318,30.237 447.5,33.59L47.47,185L47.39,185C38.142,188.557 32.005,197.492 32.005,207.4C32.005,217.694 38.628,226.894 48.39,230.16L48.8,230.29L186.1,288.92C191.543,290.572 197.473,289.202 201.64,285.33L422,80C423.326,78.674 425.125,77.929 427,77.929C430.879,77.929 434.071,81.121 434.071,85C434.071,86.875 433.326,88.674 432,90L226.66,310.26C222.788,314.427 221.418,320.357 223.07,325.8L281.72,463.18C281.78,463.38 281.84,463.56 281.91,463.75C285.11,473.02 293.21,479.56 303,480L304,480C314.092,480.058 323.243,473.907 327,464.54L478.39,64.62C481.792,55.796 479.674,45.75 473,39.05Z" style="fill-rule:nonzero;"/>
            </g>
        </g>
    </g>
</svg>
