<?xml version="1.0" encoding="UTF-8" standalone="no"?><!DOCTYPE svg PUBLIC "-//W3C//DTD SVG 1.1//EN" "http://www.w3.org/Graphics/SVG/1.1/DTD/svg11.dtd"><svg viewBox="0 0 106 124" version="1.1" xmlns="http://www.w3.org/2000/svg" xmlns:xlink="http://www.w3.org/1999/xlink" xml:space="preserve" xmlns:serif="http://www.serif.com/" style="fill-rule:evenodd;clip-rule:evenodd;stroke-linejoin:round;stroke-miterlimit:2;"><g><g><path d="M52.893,48.427c2.424,-0 4.392,-1.968 4.392,-4.392l0,-39.504c0,-2.424 -1.968,-4.392 -4.392,-4.392c-2.424,-0 -4.392,1.968 -4.392,4.392l0,39.504c0,2.424 1.968,4.392 4.392,4.392Z"/><path d="M73.557,25.195c1.704,-1.704 1.728,-4.488 0,-6.216l-17.544,-17.544c-1.704,-1.704 -4.488,-1.728 -6.216,-0l-17.544,17.544c-1.704,1.728 -1.704,4.488 0,6.216c1.728,1.704 4.488,1.704 6.216,-0l14.424,-14.448l14.448,14.448c1.704,1.728 4.488,1.728 6.216,-0Z"/></g><path d="M0.237,61.579c0,-2.424 1.968,-4.392 4.392,-4.392l96.552,-0c2.424,-0 4.392,1.968 4.392,4.392c0,2.424 -1.968,4.392 -4.392,4.392l-96.552,-0c-2.424,-0 -4.392,-1.968 -4.392,-4.392Z"/><g><path d="M52.893,74.731c2.424,-0 4.392,1.968 4.392,4.392l0,39.504c0,2.424 -1.968,4.392 -4.392,4.392c-2.424,-0 -4.392,-1.968 -4.392,-4.392l0,-39.504c0,-2.424 1.968,-4.392 4.392,-4.392Z"/><path d="M73.557,97.963c1.704,1.704 1.728,4.488 0,6.216l-17.544,17.544c-1.704,1.704 -4.488,1.728 -6.216,-0l-17.544,-17.544c-1.704,-1.728 -1.704,-4.488 0,-6.216c1.728,-1.704 4.488,-1.704 6.216,-0l14.424,14.448l14.448,-14.448c1.704,-1.728 4.488,-1.728 6.216,-0Z"/></g></g></svg>