<?xml version="1.0" encoding="utf-8"?>
<!-- Generator: Adobe Illustrator 24.1.1, SVG Export Plug-In . SVG Version: 6.00 Build 0)  -->
<svg version="1.1" id="Layer_1" xmlns="http://www.w3.org/2000/svg" xmlns:xlink="http://www.w3.org/1999/xlink" x="0px" y="0px"
	 viewBox="0 0 512 512" style="enable-background:new 0 0 512 512;" xml:space="preserve">
<style type="text/css">
	.st0{fill-rule:evenodd;clip-rule:evenodd;}
</style>
<g>
	<path class="st0" d="M36.6,256c0-10.1,8.2-18.3,18.3-18.3h402.3c10.1,0,18.3,8.2,18.3,18.3s-8.2,18.3-18.3,18.3H54.9
		C44.8,274.3,36.6,266.1,36.6,256z M256,0c10.1,0,18.3,8.2,18.3,18.3v164.6c0,10.1-8.2,18.3-18.3,18.3s-18.3-8.2-18.3-18.3V18.3
		C237.7,8.2,245.9,0,256,0z"/>
	<path class="st0" d="M342.1,96.8c7.1,7.1,7.2,18.7,0,25.9l0,0L269,195.8c-7.1,7.1-18.7,7.2-25.9,0l0,0l-73.1-73.1
		c-7.1-7.2-7.1-18.7,0-25.9c7.2-7.1,18.7-7.1,25.9,0L256,157l60.2-60.2C323.3,89.6,334.9,89.6,342.1,96.8L342.1,96.8z M256,512
		c10.1,0,18.3-8.2,18.3-18.3V329.1c0-10.1-8.2-18.3-18.3-18.3s-18.3,8.2-18.3,18.3v164.6C237.7,503.8,245.9,512,256,512z"/>
	<path class="st0" d="M342.1,415.2c7.1-7.1,7.2-18.7,0-25.9l0,0L269,316.2c-7.1-7.1-18.7-7.2-25.9,0l0,0l-73.1,73.1
		c-7.1,7.2-7.1,18.7,0,25.9c7.2,7.1,18.7,7.1,25.9,0L256,355l60.2,60.2C323.3,422.4,334.9,422.4,342.1,415.2L342.1,415.2z"/>
</g>
</svg>
